<?xml version="1.0" encoding="utf-8"?>
<!-- Generator: Adobe Illustrator 23.0.2, SVG Export Plug-In . SVG Version: 6.00 Build 0)  -->
<svg version="1.1" id="Ebene_1" xmlns="http://www.w3.org/2000/svg" xmlns:xlink="http://www.w3.org/1999/xlink" x="0px" y="0px"
	 viewBox="0 0 363 143.6" enable-background="new 0 0 363 143.6" xml:space="preserve">
<g>
	<path fill-rule="evenodd" clip-rule="evenodd" fill="#FFFFFF" d="M126.2,0v27.1h-0.2c-1.2-1.7-2.9-3-5.1-3.8
		c-2.2-0.8-4.7-1.3-7.6-1.3c-4.2,0-8,1.1-11.5,3.3c-3.5,2.2-6.4,5.3-8.5,9.4c-2.1,4.1-3.2,9.1-3.3,15c0.2,8.3,2.3,14.8,6.5,19.5
		c4.2,4.8,9.4,7.2,15.6,7.3c3,0,6-0.6,8.8-1.9c2.8-1.3,5.1-3.4,6.9-6.3h0.2l0.7,7h17.1c-0.1-1.8-0.2-4.2-0.3-7.1
		c-0.1-2.9-0.1-6-0.1-9.3V0H126.2L126.2,0z M126.2,51.6c0,0.6,0,1.2,0,1.8c0,0.6-0.1,1.1-0.3,1.7c-0.3,1.8-1.2,3.3-2.5,4.4
		c-1.3,1.2-3,1.8-4.9,1.8c-2.7,0-4.8-1-6.5-3.1c-1.7-2-2.6-5.1-2.6-9.1c0-3.5,0.7-6.4,2.2-8.8c1.5-2.4,3.8-3.6,7-3.7
		c2,0,3.7,0.7,5,1.9c1.3,1.3,2.1,2.8,2.5,4.7c0.1,0.4,0.1,0.8,0.1,1.2c0,0.4,0,0.8,0,1.2V51.6L126.2,51.6z"/>
	<path fill-rule="evenodd" clip-rule="evenodd" fill="#FFFFFF" d="M157.1,96.3h19.2V71.5h0.2c1,1.4,2.5,2.5,4.7,3.5
		c2.1,1,4.7,1.5,7.7,1.5c3.9,0,7.6-1,11.2-3c3.6-2,6.6-5.1,8.9-9.2c2.3-4.1,3.5-9.4,3.6-15.7c-0.1-5.7-1.1-10.5-3.1-14.4
		c-2-4-4.7-7-7.9-9c-3.2-2.1-6.7-3.1-10.4-3.1c-3.6,0-6.9,0.7-9.7,2c-2.9,1.3-5.3,3.3-7.3,5.9H174l-0.8-6.7h-16.5
		c0.1,2.4,0.2,5.1,0.3,8.1c0.1,3,0.1,6.2,0.1,9.7V96.3L157.1,96.3z M176.2,46.1c0-0.4,0-0.8,0-1.3c0-0.4,0.1-0.8,0.2-1.2
		c0.4-1.9,1.3-3.5,2.7-4.7c1.4-1.3,3.1-1.9,5.1-1.9c3,0.1,5.3,1.2,6.8,3.5c1.5,2.3,2.2,5.3,2.2,9.1c0,3.8-0.8,6.8-2.5,9
		c-1.6,2.2-3.9,3.3-6.8,3.4c-1.9,0-3.6-0.7-4.9-1.9c-1.3-1.2-2.2-2.7-2.6-4.4c-0.2-1-0.3-2-0.3-3.2V46.1L176.2,46.1z"/>
	<path fill="#FFFFFF" d="M218.9,72.7c2.1,1.1,4.7,2,7.8,2.6c3.1,0.7,6.5,1,10.1,1.1c8-0.1,14-1.8,18-5c3.9-3.2,5.9-7.4,5.9-12.5
		c0-3.7-1.1-6.9-3.3-9.6c-2.2-2.7-5.9-4.9-11-6.5c-3-1-5.1-1.8-6.2-2.5c-1.1-0.7-1.7-1.5-1.6-2.3c0-1.1,0.5-1.8,1.4-2.3
		c0.9-0.5,2.2-0.7,3.8-0.7c2.2,0,4.3,0.4,6.4,1c2.1,0.6,3.8,1.2,5.1,1.9l3.1-12.9c-1.7-0.8-3.9-1.5-6.6-2c-2.7-0.6-5.6-0.9-8.8-0.9
		c-7,0.1-12.5,1.8-16.5,5.1c-4,3.3-6.1,7.6-6.2,12.8c-0.1,3.1,1,6,3.3,8.9c2.3,2.8,6.3,5.2,12,7c2.7,0.9,4.6,1.6,5.5,2.2
		c0.9,0.6,1.4,1.4,1.3,2.3c0,1-0.4,1.7-1.3,2.2c-0.9,0.5-2.4,0.7-4.4,0.7c-2.5-0.1-5.1-0.5-7.8-1.3c-2.8-0.8-5-1.7-6.6-2.6
		L218.9,72.7L218.9,72.7z"/>
	<path fill-rule="evenodd" clip-rule="evenodd" fill="#FFFFFF" d="M320.9,39.2c0-4.1,0-7.4,0.1-9.9c0.1-2.5,0.2-4.5,0.3-6.1h-16.4
		l-0.6,5.6h-0.2c-1.4-2.2-3.2-3.9-5.4-5c-2.2-1.2-4.9-1.7-8.1-1.8c-6.7,0.1-12.3,2.6-16.7,7.5c-4.4,4.9-6.8,11.5-6.9,19.8
		c0.1,7.7,2.2,13.8,6.2,18.3c4,4.5,9.3,6.9,15.7,7c2.6,0,5-0.5,7.3-1.4c2.2-1,4.2-2.4,5.8-4.4h0.2v2.3c-0.1,4-1.2,7-3.5,8.9
		c-2.3,1.9-5.1,2.9-8.6,2.9c-3,0-5.9-0.5-8.6-1.2c-2.7-0.8-4.8-1.6-6.5-2.6l-3.6,14.4c2.5,1.3,5.4,2.2,8.8,2.9c3.4,0.7,6.9,1,10.6,1
		c4.1,0,8-0.4,11.8-1.3c3.8-0.9,7.2-2.6,10.2-5.1c3.1-2.8,5.3-6.2,6.5-10.3c1.2-4.1,1.8-8.4,1.7-13V39.2L320.9,39.2z M301.8,51.7
		c0,0.6,0,1.3,0,2c0,0.7-0.1,1.4-0.3,1.9c-0.3,1.5-1.1,2.7-2.3,3.7c-1.2,1-2.6,1.5-4.4,1.5c-2.7-0.1-4.8-1.2-6.2-3.3
		c-1.5-2.2-2.2-5-2.3-8.4c0.1-4.1,0.9-7.3,2.5-9.5c1.6-2.2,3.6-3.2,6-3.3c1.8,0,3.2,0.5,4.4,1.5c1.2,1,2,2.5,2.4,4.4
		c0.1,0.4,0.1,0.8,0.1,1.2c0,0.4,0.1,0.8,0.1,1.3V51.7L301.8,51.7z"/>
	<path fill-rule="evenodd" clip-rule="evenodd" fill="#FFFFFF" d="M39.7,10c0.5,0,6-0.2,8.3,1.4c2.2,1.5,0.6,7.6,0.4,7.9
		c-0.7,0.8,15.7,0.3,16,0.3c0.3,0,7.1,7.1,6.4,7.4c-2.8,1.2-22.2,2-22.7,2.2c-0.5,0.3-1.5,11.4-1.5,12.1c0,0.7,14.3-10.3,21.5-10.6
		c5-0.2,6.9,4.9,7.3,6.3c0.4,1.6,1.7,5.8,1.2,12.4c-0.2,3.1-2.3,15.2-8.8,20.5c-1.7,1.4-5.3,3-7.9,1.5c-2.3-1.4-12.2-9.4-11.9-9.4
		c1.7-0.2,4.6,0.9,5.9-0.1c2-1.4,2.2-10.4,2.5-13.4c0-0.5-6.8,1.7-8,2.6c-1.2,0.9-2.8,2.6-3.2,4.1c-0.4,1.6,0.4,4.1-0.3,4.1H34.6
		c-0.7,0,0.1-2.4-0.3-4.1c-0.4-1.5-2-3.3-3.2-4.1c-1.2-0.9-8.1-3.1-8-2.6c0.3,3.1,0.4,12,2.5,13.4c1.4,0.9,4.2-0.1,5.9,0.1
		c0.3,0-9.6,8-11.9,9.4c-2.7,1.6-6.3-0.1-7.9-1.5C5.1,64.8,3,52.6,2.8,49.6C2.4,43,3.2,39.7,4,37.2c0.4-1.4,2.3-6.5,7.3-6.3
		c7.3,0.3,21.5,11.3,21.5,10.6c0-0.7-1-11.9-1.5-12.1c-0.5-0.3-19.9-1-22.7-2.2c-0.7-0.3,6.1-7.4,6.4-7.4c0.3,0,16.7,0.4,16-0.3
		c-0.3-0.3-1.8-6.3,0.4-7.9C33.7,9.9,39.2,10,39.7,10L39.7,10z"/>
	<path fill-rule="evenodd" clip-rule="evenodd" fill="#FFFFFF" d="M39.7,61.4c0,0-0.6,0,4.7,0c1,0,11.5,15.8,12.4,17
		c0.4,0.5-2.8,1.7-3.8,1.7c-1.7-0.1-6.4-4.6-6.9-5.1c-0.6-0.6,0.8,6.7,0.5,7.2c-0.4,0.5-6.8,0.8-6.8,0.8s-6.4-0.4-6.8-0.8
		c-0.4-0.5,1-7.7,0.5-7.2c-0.6,0.6-5.2,5-6.9,5.1c-1,0-4.2-1.1-3.8-1.7c0.9-1.2,11.4-17,12.4-17C39.7,61.4,39.7,61.4,39.7,61.4
		L39.7,61.4z"/>
	<path fill="#FFFFFF" d="M362.9,108.7c-6.7,3.4-14.3,4-20.3,2.9c-2.1-4.2-7.4-0.5-11.2-0.7c-6.8,2.2-13.3,1-19.9,4
		c-3-1.9-6.4,0-9.7-0.1c-5.7-2.9-11.8,4.2-17,1.4c-7.7,1.9-15.3,3.5-22.8,2.4c-1.1,0.8-1.5,2-1.3,3.5c-3.2,1.8-6.2-0.1-9.3,0.1
		c0.4,0.5,0,1,0.1,1.2c-2.4,0.1-4.9-1.3-7,0.7l-1.4,0.6l0.2,0.6c-1.1,1.8-3.2,1.8-4.7,0.5c-0.5,0.9,0.8,3.5-1.2,4.1
		c-2.8-3.2-5.7-1.9-7.7-5.1l0.3-0.8l-1.9,0.9c0.3,0.8-0.3,1.7-0.6,2.5c-2.3,0.4-4.7-0.4-6.8-0.4c-1.1-0.1-0.1-1.2-1.1-1.8l-0.5,0.2
		c-0.5,1.8,3.8,2.8,0.5,4.3c-3-1.2-2-3.9-5.4-2.7c-0.3-0.2-1.8,1.1-2.8-0.3c-0.4-0.5-0.3-0.8-0.1-1.2c-1.6,1-4.1,2.2-5-0.6l-0.6-2
		c-0.2,0.1-0.6-0.1-0.9-0.2c0,1.6,0.6,3.9-0.8,5.2c-2.1,0-3.8-1.1-5-2.5c-1.1,0.8,1.2,3-0.5,3.8c-2.5-0.2-0.3-2.8-1.9-3.6
		c-2.5-0.2-6.3-2.3-7.1,2c-1.8-0.8-2.5,1.5-3.6,2.3c0.4,2.1,1.7,1.2,2.7,2.6l-0.9,2.3c-4-7.2-11.7,1.9-14.2-7c-2,0.6,0.1,4.8-3,4.3
		c-0.5-0.7-1.9-2-3.2-0.8l-1.2,0.5c0.2,0.6,0.4,1.4,1,1.5c-0.2,1.1-1.3,0.9-2,1.3c-2.4-4.4-7.4,0.2-10.9-2.4
		c-2.5-3.7,0.7-7.4-4.1-7.4c-1.8,0.2-2.3,2-2.9,3.6c-2.6-3.3-4.2,1.3-6.3,2.9l0.2,0.6c-0.5,0.9-2.3,0.4-3.5,0.7
		c-0.9-2.2-1.9-2.7-3.8-1.1c0.3,0.2-0.1,0.7,0,1c-4.1-0.4-8.5-3.5-13,0.2c-0.9-1.2-2.6,0.2-3.1-2.1c0.4-1.2,2-1.3,3-1.7l-1.5-4.8
		c-0.9,0.4-1.4-0.3-2.3-0.5c-0.3-0.8,0.5-1.8-0.6-2l-1.2,0.5c0.4,0.5-0.1,1.3-0.7,1.3c-0.8,1-2,0.6-2.5-0.4l0.6-1.6
		c-0.3-0.2-1.3,0-1.4-1c-0.2,0.1-0.9,0.4-1,1.1c0.5,0.7,2.3,1.5,0.9,3.1c-2.8-1.3-5.6-1.6-7.9-4.1c-2.6,1.2-6.7-1.8-7.9,1.4l0.4,1.4
		l2.8-0.6c1.5,1.3,2,4.9,0.4,5.6c-0.7,0.3-1.2,1.2-2,0.3c-0.7-2.3-3.8-0.2-5.7-0.3c-2.4-1.8-6.1,1.2-8.9-0.4l2.4-5.3
		c0.3,0.2-2.9-0.9-2-3l0.3-0.8c-0.5-0.7-1.3,0.3-1.8,0.2l0.3,1.1c-4.5,2-7-4.5-12-2.5c0.2,0.6,0.8,1.9-0.1,2.3l-1.4,0.6l-1.4-3.6
		c-1.7,3.3-4.4-0.3-6.5,2.3c-2.7-2.6-4.6-2.1-8.1-3.7l0.3-0.8c-4.5,0.1-8.8-1.7-13.7-1.1c-4.2-4.2-11.2-1.6-14.9-6
		c-2.9,2-4.5-0.8-7.4-0.5c-3.8-1.8-8.5-1.6-12-1.6C2,113.6,1.1,120.4,0,129c1.3,0,0,1.6,0.1,2.2c0.9-0.4,1.7,1.2,2.2,1.2
		c10.8,2.1,20.2,4.9,31.3,4.6c5.3,2.4,11.2,3.2,17,2.2c-0.2-0.6,0-1,0.1-1.3c0.7-0.3,1.7-0.5,2.5,0.2c0.8,0.9-0.9,2.3,0.8,2.5
		c0.5-0.9,0.3-2.4,1.7-2.4c1.5,1.3,2.3,4.1,5,2.2c0.6,0.1,0.8,0.9,0.9,1.2c2.6-4.7,5.6,1.6,6.2,0.1c-0.3-0.2-1.1-0.1-1.1-1.1
		c1.5-2,3.9-1.2,5.8-1.1c1.6,1.8,4.6,1.1,6.6,2.4c1-2.7,4.1,0.4,4.9-2.3c0.9-0.7,1.6-0.8,2.4-0.1c-0.3,0.8,0.1,2.9,1.2,2.3
		c2.7-3.5,6.7,4.3,6.6-3.7c1.2,2,3.6-0.4,4.9,1.9c3-4.9,5.4,7.2,6.3-1.3c1.6-0.8,2.2,1.2,3.1,2.1l-0.3,0.8c0.4,0.5,1.1,0.1,1.6-0.1
		c-0.7-0.6,0-1.6,0.1-2.3c2.7,1.7,4.6,3.7,7.9,3.1c4.1-0.6,7.2,1.8,11.5-0.1c0.6,0.3,0.9,1.2,1.5,0.6l-0.3-2.8
		c1.8-0.2,3.8-0.8,5.8-0.4l0.8,2.5c2.3,1.5,4.6-5,5.7,0.3c2-0.6,3.8-1.7,5.7-0.7l0.7-2.2c3,4.4,7.3,2.8,11.5,2.7
		c4.4-4,10.3-0.5,14.2-5.2c0.9,0.2,1,1.5,1.2,2.3c-1.4,0.6,1.6,1.8,2.1,3.2l2.5,0.4c0.2-3.6,3.8-1.7,5.1-5.2
		c1.3-0.9,2.7-0.9,4.2-0.3c-0.6,2.5-1.9,1.8-3.4,2.9c2.6,6.8,8.1-2.4,12.1,0.2c2.3-5.6,5,4.1,7.2-1.7c2.9-2,1.7,3.1,4.5,0.8
		c2.8,3.2,8-5.3,10.4,0.7c2.3-3,6.7-1.8,8.9-2.5c-0.5-1.7-3,0.7-2.8-2.2c0.7-1.3,2.3-1.4,3.3-2.5c1.6,0.9-0.1,3.3,2.4,3.4l-0.3,0.8
		c1-1.1,1.4,0.3,2.3,0.6c3.7,0.6,8.8-1.1,12.4-1.5c5.4-6,6.7,3.7,12.1-1.7c4.4,0.5,9-1.9,13.5-1.4c0.4-3.1,3.2-0.8,4-0.9
		c7.5-0.9,15.2-3.8,22.6-4.9l0.9,1.2c1.8-1.1,3.1-3,5.3-3.7c4.2,6.8,6.1-4.7,10.4,0c14.4-4.7,28.4-7.6,43.1-14
		C359.9,112,363.7,111.2,362.9,108.7L362.9,108.7z"/>
	<path fill="#FFFFFF" d="M170.1,142.9c-0.3-0.8-1-2.4-2-1.3l0.6,2L170.1,142.9L170.1,142.9z"/>
	<path fill="#FFFFFF" d="M173.2,124.8c-0.7,0.3,0.3,1.8,0.3,2.8C177.5,128.6,173.2,126.7,173.2,124.8L173.2,124.8z"/>
	<path fill="#FFFFFF" d="M161.2,128.6c-0.8,0-2.2-1.2-2.5,0.5C159.1,129.3,161.5,131.1,161.2,128.6L161.2,128.6z"/>
	<path fill="#FFFFFF" d="M135.2,124.8l-0.9,0.4l1.7,3.7C136.2,127.3,135.6,126.9,135.2,124.8L135.2,124.8z"/>
	<path fill="#FFFFFF" d="M131.1,124.5c-1.1-1.8-2.9-1.6-4.4-2.2c-1,1.1-1.8,0.2-2.8,0.3c-0.4,0.5-0.4,1.5-0.9,1.4
		C125.8,123,129.1,128.3,131.1,124.5L131.1,124.5z"/>
	<path fill="#FFFFFF" d="M89.5,120.4c-0.2-0.6,0-1.9-1.1-1.8c0,1,0.3,2.8-1.5,2.9C87.6,122.2,90.6,123.1,89.5,120.4L89.5,120.4z"/>
</g>
</svg>
