<?xml version="1.0" encoding="UTF-8"?>
<!-- Generator: Adobe Illustrator 16.0.0, SVG Export Plug-In . SVG Version: 6.00 Build 0)  -->
<!DOCTYPE svg PUBLIC "-//W3C//DTD SVG 1.1//EN" "http://www.w3.org/Graphics/SVG/1.1/DTD/svg11.dtd">
<svg version="1.1" id="Ebene_1" xmlns="http://www.w3.org/2000/svg" xmlns:xlink="http://www.w3.org/1999/xlink" x="0px" y="0px" width="362.987px" height="143.554px" viewBox="0 0 362.987 143.554" enable-background="new 0 0 362.987 143.554" xml:space="preserve">
<g>
	<path fill-rule="evenodd" clip-rule="evenodd" fill="#003056" d="M126.158,0v27.128h-0.212c-1.193-1.694-2.891-2.965-5.092-3.812   c-2.201-0.848-4.747-1.271-7.638-1.271c-4.16,0.016-8.003,1.102-11.53,3.26s-6.365,5.293-8.515,9.405   c-2.149,4.113-3.237,9.11-3.264,14.991c0.168,8.259,2.348,14.767,6.541,19.525c4.193,4.758,9.394,7.186,15.601,7.282   c3.041,0.024,5.976-0.606,8.804-1.893c2.829-1.286,5.126-3.373,6.893-6.261h0.212l0.742,6.988h17.053   c-0.11-1.809-0.208-4.173-0.292-7.094c-0.084-2.921-0.128-6.028-0.132-9.321V0H126.158L126.158,0z M126.158,51.61   c0.007,0.636-0.006,1.246-0.04,1.829c-0.033,0.583-0.126,1.14-0.278,1.67c-0.343,1.792-1.169,3.271-2.479,4.44   c-1.311,1.168-2.959,1.774-4.946,1.816c-2.654-0.005-4.824-1.03-6.511-3.076c-1.686-2.045-2.557-5.085-2.612-9.12   c-0.013-3.49,0.729-6.424,2.228-8.802c1.499-2.377,3.832-3.614,7.001-3.711c2.031,0.047,3.697,0.696,4.999,1.949   c1.302,1.252,2.146,2.83,2.533,4.732c0.051,0.38,0.082,0.787,0.093,1.22c0.011,0.433,0.016,0.839,0.013,1.219V51.61L126.158,51.61z   "/>
	<path fill-rule="evenodd" clip-rule="evenodd" fill="#003056" d="M157.052,96.328h19.171V71.533h0.212   c0.981,1.366,2.546,2.526,4.694,3.481s4.72,1.453,7.718,1.495c3.861,0.01,7.594-0.985,11.191-2.984c3.6-2,6.568-5.059,8.908-9.177   c2.338-4.118,3.549-9.352,3.633-15.7c-0.064-5.67-1.113-10.482-3.146-14.438c-2.033-3.956-4.668-6.968-7.902-9.039   c-3.234-2.07-6.684-3.112-10.352-3.126c-3.617,0.002-6.857,0.66-9.718,1.972c-2.862,1.312-5.278,3.267-7.25,5.864H174l-0.847-6.67   h-16.524c0.11,2.438,0.208,5.14,0.292,8.108c0.084,2.967,0.128,6.2,0.133,9.698V96.328L157.052,96.328z M176.224,46.096   c-0.004-0.426,0.004-0.846,0.026-1.259c0.022-0.413,0.084-0.806,0.186-1.18c0.362-1.902,1.255-3.479,2.678-4.732   c1.423-1.253,3.112-1.902,5.066-1.949c3.021,0.062,5.279,1.237,6.775,3.526s2.244,5.32,2.24,9.093   c-0.025,3.811-0.848,6.82-2.465,9.027c-1.619,2.207-3.873,3.333-6.764,3.38c-1.934-0.048-3.556-0.667-4.866-1.855   s-2.164-2.656-2.559-4.401c-0.212-0.955-0.318-2.015-0.318-3.181V46.096L176.224,46.096z"/>
	<path fill="#003056" d="M218.897,72.697c2.096,1.081,4.684,1.963,7.76,2.647c3.076,0.684,6.455,1.036,10.141,1.059   c8.045-0.106,14.033-1.773,17.967-5.004c3.934-3.229,5.895-7.388,5.881-12.473c0-3.714-1.111-6.917-3.336-9.61   c-2.225-2.692-5.879-4.862-10.963-6.508c-3.02-0.974-5.098-1.809-6.234-2.505c-1.137-0.696-1.676-1.451-1.619-2.266   c0.012-1.051,0.467-1.812,1.369-2.28c0.9-0.468,2.18-0.698,3.836-0.689c2.184,0.046,4.332,0.378,6.449,0.994   c2.115,0.616,3.814,1.239,5.096,1.869l3.072-12.921c-1.73-0.772-3.938-1.452-6.619-2.039c-2.684-0.586-5.633-0.896-8.846-0.926   c-6.975,0.097-12.479,1.782-16.51,5.057c-4.031,3.274-6.088,7.556-6.172,12.844c-0.127,3.082,0.975,6.038,3.311,8.868   c2.334,2.83,6.35,5.176,12.047,7.038c2.744,0.855,4.58,1.584,5.508,2.187c0.926,0.603,1.355,1.358,1.287,2.267   c0.02,1-0.418,1.73-1.314,2.187s-2.371,0.683-4.42,0.676c-2.455-0.051-5.066-0.479-7.838-1.285   c-2.771-0.807-4.961-1.686-6.568-2.638L218.897,72.697L218.897,72.697z"/>
	<path fill-rule="evenodd" clip-rule="evenodd" fill="#003056" d="M320.899,39.215c0.004-4.079,0.049-7.369,0.133-9.87   s0.18-4.546,0.291-6.134h-16.418l-0.635,5.611h-0.213c-1.369-2.182-3.162-3.854-5.381-5.017c-2.219-1.163-4.914-1.749-8.088-1.76   c-6.688,0.112-12.254,2.614-16.701,7.507c-4.447,4.893-6.756,11.503-6.926,19.831c0.119,7.687,2.184,13.802,6.197,18.346   c4.012,4.543,9.256,6.87,15.732,6.977c2.619,0.002,5.045-0.479,7.279-1.442s4.158-2.424,5.77-4.381h0.211v2.329   c-0.08,4.017-1.246,6.986-3.5,8.91c-2.254,1.923-5.119,2.877-8.594,2.864c-3.025-0.046-5.879-0.458-8.559-1.234   c-2.678-0.776-4.842-1.639-6.488-2.587l-3.6,14.41c2.488,1.275,5.428,2.246,8.818,2.912s6.914,1.002,10.57,1.006   c4.072,0.049,7.996-0.393,11.771-1.323s7.166-2.643,10.172-5.136c3.121-2.812,5.273-6.246,6.461-10.307   c1.188-4.06,1.752-8.396,1.695-13.01V39.215L320.899,39.215z M301.833,51.717c0.008,0.607-0.006,1.274-0.039,2.001   c-0.033,0.727-0.127,1.368-0.279,1.922c-0.338,1.469-1.094,2.693-2.268,3.672c-1.174,0.979-2.645,1.487-4.416,1.524   c-2.674-0.066-4.75-1.18-6.232-3.34c-1.48-2.161-2.232-4.971-2.254-8.431c0.068-4.149,0.914-7.304,2.533-9.464   s3.605-3.248,5.953-3.261c1.762,0.009,3.225,0.521,4.391,1.538c1.164,1.016,1.965,2.483,2.4,4.401   c0.055,0.374,0.104,0.767,0.145,1.18c0.043,0.413,0.064,0.833,0.066,1.259V51.717L301.833,51.717z"/>
	<path fill-rule="evenodd" clip-rule="evenodd" fill="#003056" d="M39.716,10.048c0.544,0,6.015-0.15,8.259,1.407   c2.22,1.542,0.635,7.618,0.38,7.876c-0.745,0.757,15.684,0.3,16.002,0.346s7.09,7.121,6.369,7.441   c-2.774,1.232-22.214,1.958-22.714,2.23c-0.5,0.273-1.466,11.391-1.466,12.133c0,0.678,14.274-10.292,21.544-10.623   c4.973-0.226,6.888,4.874,7.281,6.3c0.438,1.592,1.703,5.802,1.243,12.395c-0.215,3.092-2.311,15.24-8.761,20.523   c-1.678,1.375-5.264,3.041-7.947,1.453c-2.298-1.36-12.238-9.354-11.931-9.388c1.727-0.185,4.585,0.865,5.938-0.056   c2.049-1.395,2.201-10.359,2.498-13.44c0.049-0.516-6.81,1.726-8.036,2.589c-1.226,0.862-2.804,2.583-3.217,4.125   c-0.435,1.628,0.352,4.069-0.348,4.069H34.622c-0.701,0,0.086-2.441-0.349-4.069c-0.412-1.542-1.99-3.263-3.215-4.125   c-1.226-0.863-8.086-3.104-8.036-2.589c0.297,3.081,0.448,12.046,2.496,13.44c1.355,0.921,4.213-0.128,5.939,0.056   c0.309,0.034-9.633,8.027-11.931,9.388c-2.681,1.588-6.268-0.078-7.945-1.453c-6.45-5.284-8.546-17.431-8.763-20.523   c-0.459-6.593,0.422-9.81,1.216-12.395c0.439-1.431,2.335-6.526,7.308-6.3c7.271,0.331,21.544,11.3,21.544,10.623   c0-0.742-0.965-11.86-1.464-12.133c-0.499-0.272-19.941-0.998-22.715-2.23c-0.722-0.32,6.052-7.396,6.37-7.441   c0.318-0.045,16.746,0.411,16.001-0.346c-0.255-0.259-1.84-6.334,0.379-7.876C33.701,9.897,39.171,10.048,39.716,10.048   L39.716,10.048z"/>
	<path fill-rule="evenodd" clip-rule="evenodd" fill="#003056" d="M39.716,61.444c0,0-0.595-0.018,4.707-0.019   c0.99-0.002,11.464,15.763,12.368,16.97c0.385,0.512-2.799,1.7-3.766,1.657c-1.75-0.08-6.375-4.567-6.931-5.123   c-0.556-0.557,0.85,6.681,0.452,7.156c-0.396,0.478-6.83,0.828-6.83,0.828s-6.432-0.351-6.831-0.828   c-0.397-0.476,1.008-7.713,0.452-7.156c-0.556,0.556-5.182,5.043-6.93,5.123c-0.965,0.043-4.151-1.146-3.767-1.657   c0.904-1.207,11.364-16.987,12.354-16.97C39.716,61.425,39.716,61.444,39.716,61.444L39.716,61.444z"/>
	<path fill="#B5152B" d="M362.883,108.67c-6.719,3.41-14.295,3.995-20.254,2.87c-2.08-4.196-7.365-0.478-11.166-0.663   c-6.826,2.172-13.34,0.981-19.91,4.002c-2.971-1.855-6.404,0.045-9.65-0.073c-5.684-2.861-11.84,4.155-16.969,1.36   c-7.703,1.933-15.256,3.472-22.795,2.43c-1.088,0.821-1.533,1.993-1.338,3.513c-3.199,1.792-6.17-0.062-9.33,0.103   c0.408,0.457,0.025,0.956,0.111,1.237c-2.371,0.123-4.936-1.272-7.023,0.653l-1.408,0.646l0.172,0.565   c-1.062,1.778-3.197,1.792-4.652,0.528c-0.533,0.889,0.797,3.498-1.166,4.078c-2.846-3.199-5.66-1.905-7.717-5.146l0.297-0.782   l-1.877,0.864c0.258,0.847-0.273,1.734-0.57,2.517c-2.285,0.405-4.678-0.427-6.812-0.411c-1.109-0.134-0.109-1.238-1.07-1.763   l-0.469,0.217c-0.508,1.843,3.783,2.769,0.5,4.277c-3.033-1.181-1.994-3.913-5.363-2.686c-0.322-0.174-1.793,1.146-2.777-0.334   c-0.406-0.458-0.258-0.847-0.109-1.238c-1.557,1.037-4.137,2.225-4.996-0.601l-0.604-1.979c-0.232,0.108-0.555-0.066-0.875-0.241   c-0.039,1.629,0.648,3.89-0.822,5.209c-2.135,0.015-3.824-1.141-5.043-2.512c-1.088,0.822,1.182,2.999-0.461,3.755   c-2.455-0.159-0.305-2.758-1.908-3.632c-2.455-0.158-6.303-2.255-7.146,1.998c-1.84-0.766-2.496,1.469-3.584,2.29   c0.369,2.086,1.689,1.157,2.676,2.635l-0.893,2.344c-4.049-7.156-11.738,1.854-14.169-7.012c-1.962,0.58,0.118,4.776-2.98,4.268   c-0.493-0.739-1.946-2.003-3.182-0.791l-1.173,0.539c0.173,0.565,0.431,1.412,0.985,1.479c-0.212,1.063-1.322,0.929-2.025,1.253   c-2.4-4.372-7.429,0.195-10.893-2.398c-2.463-3.698,0.689-7.402-4.136-7.438c-1.814,0.188-2.323,2.033-2.917,3.595   c-2.612-3.308-4.16,1.27-6.335,2.913l0.172,0.565c-0.532,0.888-2.284,0.404-3.543,0.661c-0.922-2.151-1.884-2.677-3.823-1.14   c0.32,0.174-0.063,0.672,0.023,0.955c-4.122-0.36-8.547-3.478-13.044,0.2c-0.9-1.196-2.604,0.23-3.058-2.137   c0.446-1.172,2.025-1.254,2.964-1.685l-1.463-4.803c-0.938,0.432-1.43-0.31-2.306-0.549c-0.257-0.849,0.509-1.845-0.601-1.979   l-1.173,0.539c0.405,0.459-0.126,1.346-0.681,1.279c-0.767,0.997-1.963,0.58-2.542-0.441l0.594-1.562   c-0.321-0.175-1.345-0.025-1.369-0.98c-0.235,0.106-0.938,0.431-1.001,1.104c0.493,0.739,2.33,1.506,0.945,3.108   c-2.798-1.29-5.575-1.625-7.928-4.085c-2.581,1.188-6.685-1.757-7.875,1.366l0.431,1.412l2.751-0.621   c1.454,1.264,2.018,4.87,0.375,5.624c-0.703,0.324-1.235,1.214-2.049,0.299c-0.688-2.26-3.8-0.185-5.7-0.278   c-2.416-1.786-6.061,1.177-8.947-0.396l2.402-5.29c0.32,0.174-2.949-0.898-1.971-2.958l0.298-0.782   c-0.493-0.738-1.259,0.258-1.814,0.19l0.345,1.131c-4.459,2.05-6.992-4.516-12.004-2.532c0.171,0.564,0.837,1.869-0.102,2.3   l-1.408,0.648l-1.353-3.565c-1.658,3.338-4.355-0.252-6.506,2.347c-2.674-2.635-4.638-2.055-8.078-3.692l0.297-0.781   c-4.503,0.14-8.821-1.741-13.707-1.104c-4.215-4.182-11.19-1.619-14.936-6.016c-2.877,1.967-4.527-0.816-7.367-0.479   c-3.761-1.812-8.5-1.566-11.98-1.576C1.996,113.566,1.135,120.402,0,128.975c1.345,0.025-0.039,1.628,0.133,2.194   c0.938-0.433,1.688,1.155,2.244,1.223c10.807,2.115,20.206,4.879,31.348,4.586c5.279,2.404,11.151,3.247,16.977,2.179   c-0.172-0.564-0.023-0.955,0.126-1.346c0.703-0.324,1.728-0.473,2.456,0.16c0.812,0.913-0.892,2.341,0.773,2.542   c0.532-0.89,0.337-2.41,1.682-2.384c1.455,1.264,2.314,4.089,4.958,2.229c0.555,0.067,0.813,0.915,0.899,1.196   c2.573-4.725,5.575,1.625,6.17,0.062c-0.321-0.175-1.111-0.134-1.134-1.088c1.532-1.994,3.925-1.162,5.826-1.068   c1.625,1.828,4.613,1.099,6.622,2.428c1.041-2.732,4.122,0.361,4.927-2.265c0.853-0.713,1.642-0.754,2.37-0.123   c-0.297,0.781,0.07,2.866,1.243,2.327c2.682-3.486,6.669,4.341,6.631-3.693c1.157,2.045,3.628-0.381,4.872,1.947   c3.042-4.941,5.395,7.181,6.294-1.283c1.643-0.756,2.245,1.222,3.058,2.136l-0.297,0.782c0.407,0.455,1.11,0.132,1.58-0.083   c-0.727-0.632,0.04-1.628,0.102-2.302c2.651,1.681,4.597,3.683,7.905,3.129c4.098-0.597,7.241,1.823,11.463-0.118   c0.642,0.35,0.9,1.196,1.517,0.59l-0.304-2.757c1.814-0.191,3.777-0.771,5.763-0.396l0.774,2.542   c2.33,1.506,4.622-5.021,5.701,0.279c1.963-0.581,3.754-1.728,5.677-0.679l0.657-2.233c2.956,4.438,7.264,2.778,11.535,2.747   c4.41-3.96,10.267-0.534,14.185-5.233c0.875,0.241,0.984,1.479,1.243,2.327c-1.408,0.646,1.626,1.828,2.056,3.24l2.541,0.442   c0.228-3.646,3.755-1.726,5.093-5.238c1.322-0.931,2.666-0.904,4.184-0.314c-0.572,2.518-1.854,1.818-3.41,2.857   c2.619,6.846,8.086-2.43,12.105,0.229c2.316-5.572,5.004,4.141,7.232-1.715c2.879-1.967,1.736,3.066,4.527,0.817   c2.848,3.199,8.018-5.296,10.377,0.703c2.301-2.989,6.68-1.781,8.877-2.47c-0.516-1.694-2.988,0.729-2.822-2.245   c0.68-1.279,2.26-1.36,3.262-2.466c1.602,0.875-0.08,3.257,2.375,3.417l-0.297,0.78c1.002-1.104,1.432,0.309,2.307,0.551   c3.652,0.574,8.752-1.125,12.381-1.506c5.387-6.021,6.73,3.667,12.057-1.679c4.441,0.534,9.047-1.906,13.49-1.372   c0.398-3.082,3.221-0.838,4.012-0.878c7.492-0.868,15.17-3.755,22.576-4.904l0.9,1.197c1.789-1.146,3.088-3.03,5.285-3.719   c4.199,6.765,6.053-4.716,10.439,0.031c14.357-4.669,28.441-7.603,43.074-14.007C359.879,111.982,363.657,111.212,362.883,108.67   L362.883,108.67z"/>
	<path fill="#B5152B" d="M170.139,142.906c-0.258-0.848-1.009-2.435-2.01-1.33l0.603,1.978L170.139,142.906L170.139,142.906z"/>
	<path fill="#B5152B" d="M173.175,124.766c-0.705,0.324,0.282,1.803,0.305,2.758C177.538,128.557,173.222,126.676,173.175,124.766   L173.175,124.766z"/>
	<path fill="#B5152B" d="M161.249,128.637c-0.79,0.041-2.244-1.222-2.518,0.515C159.051,129.326,161.467,131.112,161.249,128.637   L161.249,128.637z"/>
	<path fill="#B5152B" d="M135.217,124.825l-0.938,0.432l1.673,3.74C136.227,127.261,135.584,126.911,135.217,124.825   L135.217,124.825z"/>
	<path fill="#B5152B" d="M131.097,124.466c-1.071-1.762-2.885-1.571-4.403-2.162c-1.001,1.104-1.814,0.189-2.838,0.339   c-0.383,0.498-0.36,1.453-0.915,1.387C125.842,123.018,129.056,128.304,131.097,124.466L131.097,124.466z"/>
	<path fill="#B5152B" d="M89.48,120.413c-0.172-0.564-0.046-1.91-1.071-1.763c0.023,0.956,0.304,2.758-1.51,2.949   C87.626,122.23,90.574,123.13,89.48,120.413L89.48,120.413z"/>
</g>
</svg>