<svg xmlns="http://www.w3.org/2000/svg" width="362.987" height="143.554" viewBox="0 0 362.987 143.554"><path fill-rule="evenodd" clip-rule="evenodd" fill="#003056" d="M126.158 0v27.128h-.212c-1.193-1.694-2.891-2.965-5.092-3.812-2.201-.848-4.747-1.271-7.638-1.271-4.16.016-8.003 1.102-11.53 3.26s-6.365 5.293-8.515 9.405c-2.149 4.113-3.237 9.11-3.264 14.991.168 8.259 2.348 14.767 6.541 19.525 4.193 4.758 9.394 7.186 15.601 7.282 3.041.024 5.976-.606 8.804-1.893 2.829-1.286 5.126-3.373 6.893-6.261h.212l.742 6.988h17.053c-.11-1.809-.208-4.173-.292-7.094a339.454 339.454 0 0 1-.132-9.321V0h-19.171zm0 51.61c.007.636-.006 1.246-.04 1.829a7.6 7.6 0 0 1-.278 1.67c-.343 1.792-1.169 3.271-2.479 4.44-1.311 1.168-2.959 1.774-4.946 1.816-2.654-.005-4.824-1.03-6.511-3.076-1.686-2.045-2.557-5.085-2.612-9.12-.013-3.49.729-6.424 2.228-8.802 1.499-2.377 3.832-3.614 7.001-3.711 2.031.047 3.697.696 4.999 1.949 1.302 1.252 2.146 2.83 2.533 4.732.051.38.082.787.093 1.22.011.433.016.839.013 1.219v5.834h-.001zM157.052 96.328h19.171V71.533h.212c.981 1.366 2.546 2.526 4.694 3.481s4.72 1.453 7.718 1.495c3.861.01 7.594-.985 11.191-2.984 3.6-2 6.568-5.059 8.908-9.177 2.338-4.118 3.549-9.352 3.633-15.7-.064-5.67-1.113-10.482-3.146-14.438-2.033-3.956-4.668-6.968-7.902-9.039-3.234-2.07-6.684-3.112-10.352-3.126-3.617.002-6.857.66-9.718 1.972-2.862 1.312-5.278 3.267-7.25 5.864H174l-.847-6.67h-16.524c.11 2.438.208 5.14.292 8.108.084 2.967.128 6.2.133 9.698v55.311h-.002zm19.172-50.232a20.13 20.13 0 0 1 .026-1.259c.022-.413.084-.806.186-1.18.362-1.902 1.255-3.479 2.678-4.732 1.423-1.253 3.112-1.902 5.066-1.949 3.021.062 5.279 1.237 6.775 3.526s2.244 5.32 2.24 9.093c-.025 3.811-.848 6.82-2.465 9.027-1.619 2.207-3.873 3.333-6.764 3.38-1.934-.048-3.556-.667-4.866-1.855s-2.164-2.656-2.559-4.401c-.212-.955-.318-2.015-.318-3.181v-6.469h.001z"/><path fill="#003056" d="M218.897 72.697c2.096 1.081 4.684 1.963 7.76 2.647 3.076.684 6.455 1.036 10.141 1.059 8.045-.106 14.033-1.773 17.967-5.004 3.934-3.229 5.895-7.388 5.881-12.473 0-3.714-1.111-6.917-3.336-9.61-2.225-2.692-5.879-4.862-10.963-6.508-3.02-.974-5.098-1.809-6.234-2.505-1.137-.696-1.676-1.451-1.619-2.266.012-1.051.467-1.812 1.369-2.28.9-.468 2.18-.698 3.836-.689 2.184.046 4.332.378 6.449.994 2.115.616 3.814 1.239 5.096 1.869l3.072-12.921c-1.73-.772-3.938-1.452-6.619-2.039-2.684-.586-5.633-.896-8.846-.926-6.975.097-12.479 1.782-16.51 5.057-4.031 3.274-6.088 7.556-6.172 12.844-.127 3.082.975 6.038 3.311 8.868 2.334 2.83 6.35 5.176 12.047 7.038 2.744.855 4.58 1.584 5.508 2.187.926.603 1.355 1.358 1.287 2.267.02 1-.418 1.73-1.314 2.187s-2.371.683-4.42.676c-2.455-.051-5.066-.479-7.838-1.285-2.771-.807-4.961-1.686-6.568-2.638l-3.285 13.451z"/><path fill-rule="evenodd" clip-rule="evenodd" fill="#003056" d="M320.899 39.215c.004-4.079.049-7.369.133-9.87s.18-4.546.291-6.134h-16.418l-.635 5.611h-.213c-1.369-2.182-3.162-3.854-5.381-5.017-2.219-1.163-4.914-1.749-8.088-1.76-6.688.112-12.254 2.614-16.701 7.507-4.447 4.893-6.756 11.503-6.926 19.831.119 7.687 2.184 13.802 6.197 18.346 4.012 4.543 9.256 6.87 15.732 6.977 2.619.002 5.045-.479 7.279-1.442s4.158-2.424 5.77-4.381h.211v2.329c-.08 4.017-1.246 6.986-3.5 8.91-2.254 1.923-5.119 2.877-8.594 2.864-3.025-.046-5.879-.458-8.559-1.234-2.678-.776-4.842-1.639-6.488-2.587l-3.6 14.41c2.488 1.275 5.428 2.246 8.818 2.912s6.914 1.002 10.57 1.006c4.072.049 7.996-.393 11.771-1.323s7.166-2.643 10.172-5.136c3.121-2.812 5.273-6.246 6.461-10.307 1.188-4.06 1.752-8.396 1.695-13.01V39.215h.003zm-19.066 12.502c.008.607-.006 1.274-.039 2.001a8.812 8.812 0 0 1-.279 1.922c-.338 1.469-1.094 2.693-2.268 3.672-1.174.979-2.645 1.487-4.416 1.524-2.674-.066-4.75-1.18-6.232-3.34-1.48-2.161-2.232-4.971-2.254-8.431.068-4.149.914-7.304 2.533-9.464s3.605-3.248 5.953-3.261c1.762.009 3.225.521 4.391 1.538 1.164 1.016 1.965 2.483 2.4 4.401.055.374.104.767.145 1.18.043.413.064.833.066 1.259v6.999zM39.716 10.048c.544 0 6.015-.15 8.259 1.407 2.22 1.542.635 7.618.38 7.876-.745.757 15.684.3 16.002.346s7.09 7.121 6.369 7.441c-2.774 1.232-22.214 1.958-22.714 2.23-.5.273-1.466 11.391-1.466 12.133 0 .678 14.274-10.292 21.544-10.623 4.973-.226 6.888 4.874 7.281 6.3.438 1.592 1.703 5.802 1.243 12.395-.215 3.092-2.311 15.24-8.761 20.523-1.678 1.375-5.264 3.041-7.947 1.453-2.298-1.36-12.238-9.354-11.931-9.388 1.727-.185 4.585.865 5.938-.056 2.049-1.395 2.201-10.359 2.498-13.44.049-.516-6.81 1.726-8.036 2.589-1.226.862-2.804 2.583-3.217 4.125-.435 1.628.352 4.069-.348 4.069H34.622c-.701 0 .086-2.441-.349-4.069-.412-1.542-1.99-3.263-3.215-4.125-1.226-.863-8.086-3.104-8.036-2.589.297 3.081.448 12.046 2.496 13.44 1.355.921 4.213-.128 5.939.056.309.034-9.633 8.027-11.931 9.388-2.681 1.588-6.268-.078-7.945-1.453-6.45-5.284-8.546-17.431-8.763-20.523-.459-6.593.422-9.81 1.216-12.395.439-1.431 2.335-6.526 7.308-6.3 7.271.331 21.544 11.3 21.544 10.623 0-.742-.965-11.86-1.464-12.133-.499-.272-19.941-.998-22.715-2.23-.722-.32 6.052-7.396 6.37-7.441.318-.045 16.746.411 16.001-.346-.255-.259-1.84-6.334.379-7.876 2.244-1.558 7.714-1.407 8.259-1.407z"/><path fill-rule="evenodd" clip-rule="evenodd" fill="#003056" d="M39.716 61.444s-.595-.018 4.707-.019c.99-.002 11.464 15.763 12.368 16.97.385.512-2.799 1.7-3.766 1.657-1.75-.08-6.375-4.567-6.931-5.123-.556-.557.85 6.681.452 7.156-.396.478-6.83.828-6.83.828s-6.432-.351-6.831-.828c-.397-.476 1.008-7.713.452-7.156-.556.556-5.182 5.043-6.93 5.123-.965.043-4.151-1.146-3.767-1.657.904-1.207 11.364-16.987 12.354-16.97 4.722 0 4.722.019 4.722.019z"/><path fill="#B5152B" d="M362.883 108.67c-6.719 3.41-14.295 3.995-20.254 2.87-2.08-4.196-7.365-.478-11.166-.663-6.826 2.172-13.34.981-19.91 4.002-2.971-1.855-6.404.045-9.65-.073-5.684-2.861-11.84 4.155-16.969 1.36-7.703 1.933-15.256 3.472-22.795 2.43-1.088.821-1.533 1.993-1.338 3.513-3.199 1.792-6.17-.062-9.33.103.408.457.025.956.111 1.237-2.371.123-4.936-1.272-7.023.653l-1.408.646.172.565c-1.062 1.778-3.197 1.792-4.652.528-.533.889.797 3.498-1.166 4.078-2.846-3.199-5.66-1.905-7.717-5.146l.297-.782-1.877.864c.258.847-.273 1.734-.57 2.517-2.285.405-4.678-.427-6.812-.411-1.109-.134-.109-1.238-1.07-1.763l-.469.217c-.508 1.843 3.783 2.769.5 4.277-3.033-1.181-1.994-3.913-5.363-2.686-.322-.174-1.793 1.146-2.777-.334-.406-.458-.258-.847-.109-1.238-1.557 1.037-4.137 2.225-4.996-.601l-.604-1.979c-.232.108-.555-.066-.875-.241-.039 1.629.648 3.89-.822 5.209-2.135.015-3.824-1.141-5.043-2.512-1.088.822 1.182 2.999-.461 3.755-2.455-.159-.305-2.758-1.908-3.632-2.455-.158-6.303-2.255-7.146 1.998-1.84-.766-2.496 1.469-3.584 2.29.369 2.086 1.689 1.157 2.676 2.635l-.893 2.344c-4.049-7.156-11.738 1.854-14.169-7.012-1.962.58.118 4.776-2.98 4.268-.493-.739-1.946-2.003-3.182-.791l-1.173.539c.173.565.431 1.412.985 1.479-.212 1.063-1.322.929-2.025 1.253-2.4-4.372-7.429.195-10.893-2.398-2.463-3.698.689-7.402-4.136-7.438-1.814.188-2.323 2.033-2.917 3.595-2.612-3.308-4.16 1.27-6.335 2.913l.172.565c-.532.888-2.284.404-3.543.661-.922-2.151-1.884-2.677-3.823-1.14.32.174-.063.672.023.955-4.122-.36-8.547-3.478-13.044.2-.9-1.196-2.604.23-3.058-2.137.446-1.172 2.025-1.254 2.964-1.685l-1.463-4.803c-.938.432-1.43-.31-2.306-.549-.257-.849.509-1.845-.601-1.979l-1.173.539c.405.459-.126 1.346-.681 1.279-.767.997-1.963.58-2.542-.441l.594-1.562c-.321-.175-1.345-.025-1.369-.98-.235.106-.938.431-1.001 1.104.493.739 2.33 1.506.945 3.108-2.798-1.29-5.575-1.625-7.928-4.085-2.581 1.188-6.685-1.757-7.875 1.366l.431 1.412 2.751-.621c1.454 1.264 2.018 4.87.375 5.624-.703.324-1.235 1.214-2.049.299-.688-2.26-3.8-.185-5.7-.278-2.416-1.786-6.061 1.177-8.947-.396l2.402-5.29c.32.174-2.949-.898-1.971-2.958l.298-.782c-.493-.738-1.259.258-1.814.19l.345 1.131c-4.459 2.05-6.992-4.516-12.004-2.532.171.564.837 1.869-.102 2.3l-1.408.648-1.353-3.565c-1.658 3.338-4.355-.252-6.506 2.347-2.674-2.635-4.638-2.055-8.078-3.692l.297-.781c-4.503.14-8.821-1.741-13.707-1.104-4.215-4.182-11.19-1.619-14.936-6.016-2.877 1.967-4.527-.816-7.367-.479-3.761-1.812-8.5-1.566-11.98-1.576-2.329 8.161-3.19 14.997-4.325 23.57 1.345.025-.039 1.628.133 2.194.938-.433 1.688 1.155 2.244 1.223 10.807 2.115 20.206 4.879 31.348 4.586 5.279 2.404 11.151 3.247 16.977 2.179-.172-.564-.023-.955.126-1.346.703-.324 1.728-.473 2.456.16.812.913-.892 2.341.773 2.542.532-.89.337-2.41 1.682-2.384 1.455 1.264 2.314 4.089 4.958 2.229.555.067.813.915.899 1.196 2.573-4.725 5.575 1.625 6.17.062-.321-.175-1.111-.134-1.134-1.088 1.532-1.994 3.925-1.162 5.826-1.068 1.625 1.828 4.613 1.099 6.622 2.428 1.041-2.732 4.122.361 4.927-2.265.853-.713 1.642-.754 2.37-.123-.297.781.07 2.866 1.243 2.327 2.682-3.486 6.669 4.341 6.631-3.693 1.157 2.045 3.628-.381 4.872 1.947 3.042-4.941 5.395 7.181 6.294-1.283 1.643-.756 2.245 1.222 3.058 2.136l-.297.782c.407.455 1.11.132 1.58-.083-.727-.632.04-1.628.102-2.302 2.651 1.681 4.597 3.683 7.905 3.129 4.098-.597 7.241 1.823 11.463-.118.642.35.9 1.196 1.517.59l-.304-2.757c1.814-.191 3.777-.771 5.763-.396l.774 2.542c2.33 1.506 4.622-5.021 5.701.279 1.963-.581 3.754-1.728 5.677-.679l.657-2.233c2.956 4.438 7.264 2.778 11.535 2.747 4.41-3.96 10.267-.534 14.185-5.233.875.241.984 1.479 1.243 2.327-1.408.646 1.626 1.828 2.056 3.24l2.541.442c.228-3.646 3.755-1.726 5.093-5.238 1.322-.931 2.666-.904 4.184-.314-.572 2.518-1.854 1.818-3.41 2.857 2.619 6.846 8.086-2.43 12.105.229 2.316-5.572 5.004 4.141 7.232-1.715 2.879-1.967 1.736 3.066 4.527.817 2.848 3.199 8.018-5.296 10.377.703 2.301-2.989 6.68-1.781 8.877-2.47-.516-1.694-2.988.729-2.822-2.245.68-1.279 2.26-1.36 3.262-2.466 1.602.875-.08 3.257 2.375 3.417l-.297.78c1.002-1.104 1.432.309 2.307.551 3.652.574 8.752-1.125 12.381-1.506 5.387-6.021 6.73 3.667 12.057-1.679 4.441.534 9.047-1.906 13.49-1.372.398-3.082 3.221-.838 4.012-.878 7.492-.868 15.17-3.755 22.576-4.904l.9 1.197c1.789-1.146 3.088-3.03 5.285-3.719 4.199 6.765 6.053-4.716 10.439.031 14.357-4.669 28.441-7.603 43.074-14.007 1.282.702 5.06-.068 4.286-2.61z"/><path fill="#B5152B" d="M170.139 142.906c-.258-.848-1.009-2.435-2.01-1.33l.603 1.978 1.407-.648zM173.175 124.766c-.705.324.282 1.803.305 2.758 4.058 1.033-.258-.848-.305-2.758zM161.249 128.637c-.79.041-2.244-1.222-2.518.515.32.174 2.736 1.96 2.518-.515zM135.217 124.825l-.938.432 1.673 3.74c.275-1.736-.368-2.086-.735-4.172zM131.097 124.466c-1.071-1.762-2.885-1.571-4.403-2.162-1.001 1.104-1.814.189-2.838.339-.383.498-.36 1.453-.915 1.387 2.901-1.012 6.115 4.274 8.156.436zM89.48 120.413c-.172-.564-.046-1.91-1.071-1.763.023.956.304 2.758-1.51 2.949.727.631 3.675 1.531 2.581-1.186z"/></svg>