<svg xmlns="http://www.w3.org/2000/svg" viewBox="0 0 363 143.6"><g fill="#FFF"><path fill-rule="evenodd" clip-rule="evenodd" d="M126.2 0v27.1h-.2c-1.2-1.7-2.9-3-5.1-3.8-2.2-.8-4.7-1.3-7.6-1.3-4.2 0-8 1.1-11.5 3.3-3.5 2.2-6.4 5.3-8.5 9.4-2.1 4.1-3.2 9.1-3.3 15 .2 8.3 2.3 14.8 6.5 19.5 4.2 4.8 9.4 7.2 15.6 7.3 3 0 6-.6 8.8-1.9 2.8-1.3 5.1-3.4 6.9-6.3h.2l.7 7h17.1c-.1-1.8-.2-4.2-.3-7.1-.1-2.9-.1-6-.1-9.3V0h-19.2zm0 51.6v1.8c0 .6-.1 1.1-.3 1.7-.3 1.8-1.2 3.3-2.5 4.4-1.3 1.2-3 1.8-4.9 1.8-2.7 0-4.8-1-6.5-3.1-1.7-2-2.6-5.1-2.6-9.1 0-3.5.7-6.4 2.2-8.8 1.5-2.4 3.8-3.6 7-3.7 2 0 3.7.7 5 1.9 1.3 1.3 2.1 2.8 2.5 4.7.1.4.1.8.1 1.2v7.2zM157.1 96.3h19.2V71.5h.2c1 1.4 2.5 2.5 4.7 3.5 2.1 1 4.7 1.5 7.7 1.5 3.9 0 7.6-1 11.2-3 3.6-2 6.6-5.1 8.9-9.2 2.3-4.1 3.5-9.4 3.6-15.7-.1-5.7-1.1-10.5-3.1-14.4-2-4-4.7-7-7.9-9-3.2-2.1-6.7-3.1-10.4-3.1-3.6 0-6.9.7-9.7 2-2.9 1.3-5.3 3.3-7.3 5.9h-.2l-.8-6.7h-16.5c.1 2.4.2 5.1.3 8.1.1 3 .1 6.2.1 9.7v55.2zm19.1-50.2v-1.3c0-.4.1-.8.2-1.2.4-1.9 1.3-3.5 2.7-4.7 1.4-1.3 3.1-1.9 5.1-1.9 3 .1 5.3 1.2 6.8 3.5s2.2 5.3 2.2 9.1-.8 6.8-2.5 9c-1.6 2.2-3.9 3.3-6.8 3.4-1.9 0-3.6-.7-4.9-1.9-1.3-1.2-2.2-2.7-2.6-4.4-.2-1-.3-2-.3-3.2v-6.4h.1z"/><path d="M218.9 72.7c2.1 1.1 4.7 2 7.8 2.6 3.1.7 6.5 1 10.1 1.1 8-.1 14-1.8 18-5 3.9-3.2 5.9-7.4 5.9-12.5 0-3.7-1.1-6.9-3.3-9.6-2.2-2.7-5.9-4.9-11-6.5-3-1-5.1-1.8-6.2-2.5-1.1-.7-1.7-1.5-1.6-2.3 0-1.1.5-1.8 1.4-2.3.9-.5 2.2-.7 3.8-.7 2.2 0 4.3.4 6.4 1 2.1.6 3.8 1.2 5.1 1.9l3.1-12.9c-1.7-.8-3.9-1.5-6.6-2-2.7-.6-5.6-.9-8.8-.9-7 .1-12.5 1.8-16.5 5.1s-6.1 7.6-6.2 12.8c-.1 3.1 1 6 3.3 8.9 2.3 2.8 6.3 5.2 12 7 2.7.9 4.6 1.6 5.5 2.2.9.6 1.4 1.4 1.3 2.3 0 1-.4 1.7-1.3 2.2-.9.5-2.4.7-4.4.7-2.5-.1-5.1-.5-7.8-1.3-2.8-.8-5-1.7-6.6-2.6l-3.4 13.3z"/><path fill-rule="evenodd" clip-rule="evenodd" d="M320.9 39.2c0-4.1 0-7.4.1-9.9s.2-4.5.3-6.1h-16.4l-.6 5.6h-.2c-1.4-2.2-3.2-3.9-5.4-5-2.2-1.2-4.9-1.7-8.1-1.8-6.7.1-12.3 2.6-16.7 7.5-4.4 4.9-6.8 11.5-6.9 19.8.1 7.7 2.2 13.8 6.2 18.3s9.3 6.9 15.7 7c2.6 0 5-.5 7.3-1.4 2.2-1 4.2-2.4 5.8-4.4h.2v2.3c-.1 4-1.2 7-3.5 8.9-2.3 1.9-5.1 2.9-8.6 2.9-3 0-5.9-.5-8.6-1.2-2.7-.8-4.8-1.6-6.5-2.6l-3.6 14.4c2.5 1.3 5.4 2.2 8.8 2.9 3.4.7 6.9 1 10.6 1 4.1 0 8-.4 11.8-1.3 3.8-.9 7.2-2.6 10.2-5.1 3.1-2.8 5.3-6.2 6.5-10.3 1.2-4.1 1.8-8.4 1.7-13V39.2h-.1zm-19.1 12.5v2c0 .7-.1 1.4-.3 1.9-.3 1.5-1.1 2.7-2.3 3.7-1.2 1-2.6 1.5-4.4 1.5-2.7-.1-4.8-1.2-6.2-3.3-1.5-2.2-2.2-5-2.3-8.4.1-4.1.9-7.3 2.5-9.5s3.6-3.2 6-3.3c1.8 0 3.2.5 4.4 1.5 1.2 1 2 2.5 2.4 4.4.1.4.1.8.1 1.2 0 .4.1.8.1 1.3v7zM39.7 10c.5 0 6-.2 8.3 1.4 2.2 1.5.6 7.6.4 7.9-.7.8 15.7.3 16 .3.3 0 7.1 7.1 6.4 7.4-2.8 1.2-22.2 2-22.7 2.2-.5.3-1.5 11.4-1.5 12.1 0 .7 14.3-10.3 21.5-10.6 5-.2 6.9 4.9 7.3 6.3.4 1.6 1.7 5.8 1.2 12.4-.2 3.1-2.3 15.2-8.8 20.5-1.7 1.4-5.3 3-7.9 1.5C57.6 70 47.7 62 48 62c1.7-.2 4.6.9 5.9-.1 2-1.4 2.2-10.4 2.5-13.4 0-.5-6.8 1.7-8 2.6-1.2.9-2.8 2.6-3.2 4.1-.4 1.6.4 4.1-.3 4.1H34.6c-.7 0 .1-2.4-.3-4.1-.4-1.5-2-3.3-3.2-4.1-1.2-.9-8.1-3.1-8-2.6.3 3.1.4 12 2.5 13.4 1.4.9 4.2-.1 5.9.1.3 0-9.6 8-11.9 9.4-2.7 1.6-6.3-.1-7.9-1.5C5.1 64.8 3 52.6 2.8 49.6c-.4-6.6.4-9.9 1.2-12.4.4-1.4 2.3-6.5 7.3-6.3 7.3.3 21.5 11.3 21.5 10.6 0-.7-1-11.9-1.5-12.1-.5-.3-19.9-1-22.7-2.2-.7-.3 6.1-7.4 6.4-7.4.3 0 16.7.4 16-.3-.3-.3-1.8-6.3.4-7.9 2.3-1.7 7.8-1.6 8.3-1.6z"/><path fill-rule="evenodd" clip-rule="evenodd" d="M39.7 61.4h4.7c1 0 11.5 15.8 12.4 17 .4.5-2.8 1.7-3.8 1.7-1.7-.1-6.4-4.6-6.9-5.1-.6-.6.8 6.7.5 7.2-.4.5-6.8.8-6.8.8s-6.4-.4-6.8-.8c-.4-.5 1-7.7.5-7.2-.6.6-5.2 5-6.9 5.1-1 0-4.2-1.1-3.8-1.7.9-1.2 11.4-17 12.4-17h4.5z"/><path d="M362.9 108.7c-6.7 3.4-14.3 4-20.3 2.9-2.1-4.2-7.4-.5-11.2-.7-6.8 2.2-13.3 1-19.9 4-3-1.9-6.4 0-9.7-.1-5.7-2.9-11.8 4.2-17 1.4-7.7 1.9-15.3 3.5-22.8 2.4-1.1.8-1.5 2-1.3 3.5-3.2 1.8-6.2-.1-9.3.1.4.5 0 1 .1 1.2-2.4.1-4.9-1.3-7 .7l-1.4.6.2.6c-1.1 1.8-3.2 1.8-4.7.5-.5.9.8 3.5-1.2 4.1-2.8-3.2-5.7-1.9-7.7-5.1l.3-.8-1.9.9c.3.8-.3 1.7-.6 2.5-2.3.4-4.7-.4-6.8-.4-1.1-.1-.1-1.2-1.1-1.8l-.5.2c-.5 1.8 3.8 2.8.5 4.3-3-1.2-2-3.9-5.4-2.7-.3-.2-1.8 1.1-2.8-.3-.4-.5-.3-.8-.1-1.2-1.6 1-4.1 2.2-5-.6l-.6-2c-.2.1-.6-.1-.9-.2 0 1.6.6 3.9-.8 5.2-2.1 0-3.8-1.1-5-2.5-1.1.8 1.2 3-.5 3.8-2.5-.2-.3-2.8-1.9-3.6-2.5-.2-6.3-2.3-7.1 2-1.8-.8-2.5 1.5-3.6 2.3.4 2.1 1.7 1.2 2.7 2.6l-.9 2.3c-4-7.2-11.7 1.9-14.2-7-2 .6.1 4.8-3 4.3-.5-.7-1.9-2-3.2-.8l-1.2.5c.2.6.4 1.4 1 1.5-.2 1.1-1.3.9-2 1.3-2.4-4.4-7.4.2-10.9-2.4-2.5-3.7.7-7.4-4.1-7.4-1.8.2-2.3 2-2.9 3.6-2.6-3.3-4.2 1.3-6.3 2.9l.2.6c-.5.9-2.3.4-3.5.7-.9-2.2-1.9-2.7-3.8-1.1.3.2-.1.7 0 1-4.1-.4-8.5-3.5-13 .2-.9-1.2-2.6.2-3.1-2.1.4-1.2 2-1.3 3-1.7l-1.5-4.8c-.9.4-1.4-.3-2.3-.5-.3-.8.5-1.8-.6-2l-1.2.5c.4.5-.1 1.3-.7 1.3-.8 1-2 .6-2.5-.4l.6-1.6c-.3-.2-1.3 0-1.4-1-.2.1-.9.4-1 1.1.5.7 2.3 1.5.9 3.1-2.8-1.3-5.6-1.6-7.9-4.1-2.6 1.2-6.7-1.8-7.9 1.4l.4 1.4 2.8-.6c1.5 1.3 2 4.9.4 5.6-.7.3-1.2 1.2-2 .3-.7-2.3-3.8-.2-5.7-.3-2.4-1.8-6.1 1.2-8.9-.4l2.4-5.3c.3.2-2.9-.9-2-3l.3-.8c-.5-.7-1.3.3-1.8.2l.3 1.1c-4.5 2-7-4.5-12-2.5.2.6.8 1.9-.1 2.3l-1.4.6-1.4-3.6c-1.7 3.3-4.4-.3-6.5 2.3-2.7-2.6-4.6-2.1-8.1-3.7l.3-.8c-4.5.1-8.8-1.7-13.7-1.1-4.2-4.2-11.2-1.6-14.9-6-2.9 2-4.5-.8-7.4-.5-3.8-1.8-8.5-1.6-12-1.6C2 113.6 1.1 120.4 0 129c1.3 0 0 1.6.1 2.2.9-.4 1.7 1.2 2.2 1.2 10.8 2.1 20.2 4.9 31.3 4.6 5.3 2.4 11.2 3.2 17 2.2-.2-.6 0-1 .1-1.3.7-.3 1.7-.5 2.5.2.8.9-.9 2.3.8 2.5.5-.9.3-2.4 1.7-2.4 1.5 1.3 2.3 4.1 5 2.2.6.1.8.9.9 1.2 2.6-4.7 5.6 1.6 6.2.1-.3-.2-1.1-.1-1.1-1.1 1.5-2 3.9-1.2 5.8-1.1 1.6 1.8 4.6 1.1 6.6 2.4 1-2.7 4.1.4 4.9-2.3.9-.7 1.6-.8 2.4-.1-.3.8.1 2.9 1.2 2.3 2.7-3.5 6.7 4.3 6.6-3.7 1.2 2 3.6-.4 4.9 1.9 3-4.9 5.4 7.2 6.3-1.3 1.6-.8 2.2 1.2 3.1 2.1l-.3.8c.4.5 1.1.1 1.6-.1-.7-.6 0-1.6.1-2.3 2.7 1.7 4.6 3.7 7.9 3.1 4.1-.6 7.2 1.8 11.5-.1.6.3.9 1.2 1.5.6l-.3-2.8c1.8-.2 3.8-.8 5.8-.4l.8 2.5c2.3 1.5 4.6-5 5.7.3 2-.6 3.8-1.7 5.7-.7l.7-2.2c3 4.4 7.3 2.8 11.5 2.7 4.4-4 10.3-.5 14.2-5.2.9.2 1 1.5 1.2 2.3-1.4.6 1.6 1.8 2.1 3.2l2.5.4c.2-3.6 3.8-1.7 5.1-5.2 1.3-.9 2.7-.9 4.2-.3-.6 2.5-1.9 1.8-3.4 2.9 2.6 6.8 8.1-2.4 12.1.2 2.3-5.6 5 4.1 7.2-1.7 2.9-2 1.7 3.1 4.5.8 2.8 3.2 8-5.3 10.4.7 2.3-3 6.7-1.8 8.9-2.5-.5-1.7-3 .7-2.8-2.2.7-1.3 2.3-1.4 3.3-2.5 1.6.9-.1 3.3 2.4 3.4l-.3.8c1-1.1 1.4.3 2.3.6 3.7.6 8.8-1.1 12.4-1.5 5.4-6 6.7 3.7 12.1-1.7 4.4.5 9-1.9 13.5-1.4.4-3.1 3.2-.8 4-.9 7.5-.9 15.2-3.8 22.6-4.9l.9 1.2c1.8-1.1 3.1-3 5.3-3.7 4.2 6.8 6.1-4.7 10.4 0 14.4-4.7 28.4-7.6 43.1-14 1 1 4.8.2 4-2.3z"/><path d="M170.1 142.9c-.3-.8-1-2.4-2-1.3l.6 2 1.4-.7zM173.2 124.8c-.7.3.3 1.8.3 2.8 4 1-.3-.9-.3-2.8zM161.2 128.6c-.8 0-2.2-1.2-2.5.5.4.2 2.8 2 2.5-.5zM135.2 124.8l-.9.4 1.7 3.7c.2-1.6-.4-2-.8-4.1zM131.1 124.5c-1.1-1.8-2.9-1.6-4.4-2.2-1 1.1-1.8.2-2.8.3-.4.5-.4 1.5-.9 1.4 2.8-1 6.1 4.3 8.1.5zM89.5 120.4c-.2-.6 0-1.9-1.1-1.8 0 1 .3 2.8-1.5 2.9.7.7 3.7 1.6 2.6-1.1z"/></g></svg>